<?xml version="1.0" encoding="UTF-8"?>
<svg id="Layer_1" data-name="Layer 1" xmlns="http://www.w3.org/2000/svg" version="1.1" xmlns:xlink="http://www.w3.org/1999/xlink" viewBox="0 0 1500 1500">
  <defs>
    <style>
      .cls-1 {
        fill: url(#linear-gradient-12);
      }

      .cls-1, .cls-2, .cls-3, .cls-4, .cls-5, .cls-6, .cls-7, .cls-8, .cls-9, .cls-10, .cls-11, .cls-12, .cls-13, .cls-14, .cls-15, .cls-16, .cls-17, .cls-18, .cls-19, .cls-20, .cls-21, .cls-22, .cls-23, .cls-24, .cls-25, .cls-26, .cls-27, .cls-28, .cls-29, .cls-30, .cls-31, .cls-32, .cls-33, .cls-34, .cls-35, .cls-36, .cls-37 {
        stroke-width: 0px;
      }

      .cls-2 {
        fill: url(#linear-gradient-17);
      }

      .cls-3 {
        fill: #d80136;
      }

      .cls-3, .cls-33 {
        fill-rule: evenodd;
      }

      .cls-4 {
        fill: url(#linear-gradient);
      }

      .cls-5 {
        fill: #e60334;
      }

      .cls-6 {
        fill: #fb0a45;
      }

      .cls-7 {
        fill: #d80033;
      }

      .cls-8 {
        fill: url(#linear-gradient-6);
      }

      .cls-9 {
        fill: #f6f9fb;
      }

      .cls-10 {
        fill: #db0035;
      }

      .cls-11 {
        fill: #8a0132;
      }

      .cls-12 {
        fill: url(#linear-gradient-15);
      }

      .cls-13 {
        fill: url(#linear-gradient-11);
      }

      .cls-14 {
        fill: url(#linear-gradient-5);
      }

      .cls-15 {
        fill: #334b5c;
      }

      .cls-16 {
        fill: none;
      }

      .cls-17 {
        fill: #102129;
      }

      .cls-18 {
        fill: url(#linear-gradient-13);
      }

      .cls-19 {
        fill: #163444;
      }

      .cls-20 {
        fill: url(#linear-gradient-16);
      }

      .cls-21 {
        fill: url(#linear-gradient-14);
      }

      .cls-22 {
        fill: url(#linear-gradient-2);
      }

      .cls-23 {
        fill: #97032c;
      }

      .cls-24 {
        fill: url(#linear-gradient-7);
      }

      .cls-25 {
        fill: url(#linear-gradient-3);
      }

      .cls-26 {
        fill: #c20130;
      }

      .cls-27 {
        fill: url(#linear-gradient-9);
      }

      .cls-28 {
        fill: #fdffff;
      }

      .cls-29 {
        fill: url(#linear-gradient-8);
      }

      .cls-30 {
        fill: #12222a;
      }

      .cls-31 {
        fill: url(#linear-gradient-18);
      }

      .cls-32 {
        fill: #fff;
      }

      .cls-33, .cls-37 {
        fill: #0b1a25;
      }

      .cls-34 {
        fill: url(#linear-gradient-10);
      }

      .cls-35 {
        fill: #690833;
      }

      .cls-36 {
        fill: url(#linear-gradient-4);
      }
    </style>
    <linearGradient id="linear-gradient" x1="461.64" y1="935.31" x2="354.71" y2="659.72" gradientUnits="userSpaceOnUse">
      <stop offset="0" stop-color="#6d0333"/>
      <stop offset="1" stop-color="#dd0139"/>
    </linearGradient>
    <linearGradient id="linear-gradient-2" x1="1313.67" y1="760.68" x2="1313.67" y2="651.11" xlink:href="#linear-gradient"/>
    <linearGradient id="linear-gradient-3" x1="1268.16" y1="878.04" x2="1268.16" y2="763.28" xlink:href="#linear-gradient"/>
    <linearGradient id="linear-gradient-4" x1="1109.76" y1="746.33" x2="1109.76" y2="636.97" xlink:href="#linear-gradient"/>
    <linearGradient id="linear-gradient-5" x1="1118.59" y1="888.47" x2="1118.59" y2="771.82" xlink:href="#linear-gradient"/>
    <linearGradient id="linear-gradient-6" x1="1166.22" y1="621.15" x2="1166.22" y2="454.21" xlink:href="#linear-gradient"/>
    <linearGradient id="linear-gradient-7" x1="1026.02" y1="670.7" x2="1026.02" y2="492.96" xlink:href="#linear-gradient"/>
    <linearGradient id="linear-gradient-8" x1="813.77" y1="940.86" x2="1278.19" y2="940.86" xlink:href="#linear-gradient"/>
    <linearGradient id="linear-gradient-9" x1="862" y1="796.37" x2="1076.07" y2="796.37" gradientUnits="userSpaceOnUse">
      <stop offset="0" stop-color="#4a0125"/>
      <stop offset="1" stop-color="#dd0139"/>
    </linearGradient>
    <linearGradient id="linear-gradient-10" x1="943.13" y1="952" x2="966.61" y2="712.06" xlink:href="#linear-gradient"/>
    <linearGradient id="linear-gradient-11" x1="736.21" y1="1002.61" x2="918.45" y2="1002.61" xlink:href="#linear-gradient-9"/>
    <linearGradient id="linear-gradient-12" x1="661.39" y1="1068.88" x2="789.84" y2="955.42" xlink:href="#linear-gradient"/>
    <linearGradient id="linear-gradient-13" x1="605.05" y1="1172.54" x2="689.38" y2="921.3" xlink:href="#linear-gradient"/>
    <linearGradient id="linear-gradient-14" x1="745.17" y1="1217.99" x2="619.12" y2="1012.82" xlink:href="#linear-gradient"/>
    <linearGradient id="linear-gradient-15" x1="847.33" y1="672.14" x2="845.79" y2="678.63" gradientUnits="userSpaceOnUse">
      <stop offset="0" stop-color="#4f636a"/>
      <stop offset="1" stop-color="#163444"/>
    </linearGradient>
    <linearGradient id="linear-gradient-16" x1="847.14" y1="588.76" x2="842.74" y2="607.67" xlink:href="#linear-gradient-15"/>
    <linearGradient id="linear-gradient-17" x1="849.68" y1="498.74" x2="842.09" y2="523.81" xlink:href="#linear-gradient-15"/>
    <linearGradient id="linear-gradient-18" x1="849.6" y1="413.88" x2="843.34" y2="430.7" xlink:href="#linear-gradient-15"/>
  </defs>
  <g>
    <path class="cls-37" d="M230.06,635.23c-1.57,4.73-3.09,9.44-4.51,14.15-1.59,3.23-3.07,6.47-4.42,9.7,2.33-7.87,5.3-15.83,8.92-23.85Z"/>
    <path class="cls-37" d="M225.56,649.38c1.42-4.71,2.94-9.42,4.51-14.15-3.62,8.02-6.6,15.98-8.92,23.85-10.75,25.27-15.39,50.51-16.09,70.66-2.75,79.58,54.79,135.21,105.63,118.32.42,2.72,1.02,5.75,1.83,9.05,1.72,8.04,4.36,15.81,8.11,23.07.04.06.06.13.09.18,17.35,33.47,57.86,56.29,136.23,44.97,9.83,9.14,18.33,16.85,24.15,22.09-88.42,26.47-164.79,2.7-187.62-68.22-35.77,2.49-124.81-44.08-117.31-153.02,7.37-107.37,103.62-243.78,306.22-202.4.04,8.9.06,18.44.07,28.34-1.29.06-2.59.11-3.88.18-149.03-27.34-221.65,32.86-253.02,97.06Z"/>
    <path class="cls-32" d="M236.72,771.49c-28.97-41.7-23.48-81.43-11.16-122.11,31.37-64.2,103.99-124.4,253.02-97.06-221.11,10.81-246.94,141.47-241.86,219.17Z"/>
    <path class="cls-35" d="M339.54,664.53c16.68-4.23,36.52,1.72,50.65,13.28-1.64,2.18-3.25,4.45-4.8,6.82-6.34-16.77-26.08-23.7-45.85-20.1Z"/>
    <path class="cls-35" d="M348.5,800.98c-33.07-35.54-49.79-63.42-38-105.87,4.95-17.81,16.02-27.29,29.02-30.57h.02c19.77-3.6,39.52,3.33,45.85,20.1-19.56,29.69-31.28,70.9-34.82,86.96-2.72,12.34-6.21,18.1-2.07,29.39Z"/>
    <path class="cls-23" d="M349.37,803.18c-36.61-6.63-67.87-43.43-56.07-94.44,6.04-26.05,26.12-40.55,46.22-44.21-13.01,3.29-24.07,12.77-29.02,30.57-11.79,42.45,4.93,70.33,38,105.87.26.7.54,1.44.87,2.2Z"/>
    <path class="cls-23" d="M221.14,659.08c-25.59,85.85,22.11,161.42,88.53,173.12,0,0-.57,5.93,1.02,15.87-50.84,16.88-108.39-38.74-105.63-118.32.7-20.15,5.34-45.39,16.09-70.66Z"/>
    <path class="cls-4" d="M309.67,832.2c-66.41-11.69-114.11-87.27-88.53-173.12,1.35-3.23,2.83-6.47,4.42-9.7-12.32,40.68-17.81,80.42,11.16,122.11-5.08-77.7,20.75-208.37,241.86-219.17,1.27.22,2.57.48,3.88.72.06,19.62.11,40.66.18,61.09-25.51,13.86-59.56,33.36-77.72,48.03-5.28,4.27-10.2,9.61-14.72,15.65-14.13-11.56-33.97-17.51-50.65-13.28h-.02c-20.1,3.66-40.18,18.16-46.22,44.21-11.8,51.01,19.45,87.81,56.07,94.44,3.18,7.5,9.53,17.46,21.1,32.81,18.84,25.03,58.21,63.09,86.48,89.36-78.37,11.32-118.88-11.49-136.23-44.97-.04-.06-.06-.13-.09-.18-3.92-8.55-6.47-16.37-8.11-23.07-.65-3.01-1.15-6.06-1.53-9.14-.09.04-.2.07-.3.09-1.59-9.94-1.02-15.87-1.02-15.87Z"/>
  </g>
  <g>
    <path class="cls-22" d="M1313.67,666.29c5.87,0,10.62,4.75,10.62,10.62s-4.75,10.62-10.62,10.62-10.62-4.75-10.62-10.62,4.75-10.62,10.62-10.62Z"/>
    <path class="cls-25" d="M1296.58,801.66v2.79c0,10.2-8.28,18.47-18.47,18.47h-19.88c-10.22,0-18.47-8.28-18.47-18.47v-2.79c0-10.2,8.26-18.47,18.47-18.47h19.88c10.2,0,18.47,8.28,18.47,18.47Z"/>
    <path class="cls-36" d="M1284.37,676.74c0,16.42-3.33,28.41-52.63,28.41-38.5-.5-223.48,0-223.48,0,0,0-70.98-32.75-72.97-34.75-2.01-2,21.19-46.98,21.19-46.98h218.03c16.83,0,22.69,2.94,15.37,11.71-7.32,8.78-8.13,19.27,9.86,21.28,17.99,2,40.16,0,51.67,0,15.89-.68,32.96,3.88,32.96,20.32Z"/>
    <path class="cls-17" d="M1236.09,492.98c8.29,0,15,6.71,15,14.98s-6.71,15-15,15-14.98-6.71-14.98-15,6.71-14.98,14.98-14.98Z"/>
    <path class="cls-14" d="M1189.52,846.66c16.74,0,26.57,4.36,26.2,17.09-.37,12.73-7.28,18.18-35.65,18.18h-158.62l43.65-122.57h123.7c17.83,0,29.84,9.46,6.91,22.19-22.93,12.73-38.92,17.09-39.29,39.64-.37,22.56,16.37,25.48,33.1,25.48Z"/>
    <path class="cls-8" d="M1166.23,481.33c13.15,0,23.81,10.66,23.81,23.83s-10.66,23.81-23.81,23.81-23.83-10.66-23.83-23.81,10.68-23.83,23.83-23.83Z"/>
    <path class="cls-30" d="M1170.24,924.68c9.27,0,16.79,7.54,16.79,16.81s-7.52,16.79-16.79,16.79h-8.41c-9.27,0-16.79-7.52-16.79-16.79s7.52-16.81,16.79-16.81h8.41Z"/>
    <path class="cls-24" d="M1094.59,549.11c16.44-.94,28.17-1.42,27.23,20.19-.92,21.6-26.29,16.9-33.35,16.9h-146.09v-28.65h51.21c15.96,0,31-6.1,31.46-19.25.48-13.15-7.5-17.38-25.83-17.85s-69.05,0-69.05,0l20.67-44.13,8.28-.44h84.04c41.6,0,56.34-5.73,58.23,9.9,1.88,15.63-9.62,14.95-17.61,17.31-7.98,2.35-19.27,11.73-18.33,25.83.94,14.08,12.69,21.12,29.13,20.19Z"/>
    <path class="cls-29" d="M1082.93,921.22c21.84,0,33.1,5.45,32.38,21.47-.72,16-14.19,18.18-39.66,18.18h-141.88l47.66-40.01,20.75.37h80.75Z"/>
  </g>
  <g>
    <path class="cls-11" d="M1077.29,785.37c-.41.22-.81.44-1.22.65l-104.78-47.09c.52-1.39.94-2.97,1.37-4.78l56.77-56.29c3.25,2.57,5.51,4.9,7.13,7.41,6.11,9.48,40.7,87.34,40.73,100.11Z"/>
    <path class="cls-37" d="M862,853.8c81.78-12.69,155.05-36.32,214.07-67.78l1.13.5c-1.37,6.58-14.67,23.55-38.89,49.16-50.4,21.97-108.75,38.78-172.38,48.94-7.19,1.16-14.43,2.22-21.74,3.2l9.24-19.91,3.07-4.21-10.42-7.57c5.34-.72,10.66-1.5,15.92-2.31Z"/>
    <path class="cls-27" d="M971.29,738.93l104.78,47.09c-59.02,31.46-132.29,55.09-214.07,67.78l74.8-101.14c5.28-.67,9.35-1.24,11.93-1.7,15.61-2.79,20.08-5.17,22.56-12.03Z"/>
    <path class="cls-5" d="M1029.42,677.86l-56.77,56.29c.3-1.29.59-2.72.92-4.27,1.4-6.65,1.83-45.91,1.87-86.09,29.65,18.62,45.33,27.21,53.98,34.07Z"/>
    <path class="cls-34" d="M1038.31,835.68c-18.73,19.8-44,44.8-75.3,74.15-12.53,11.75-27.82,26.03-44.56,41.6l-52.52-66.82c63.62-10.16,121.98-26.97,172.38-48.94Z"/>
    <path class="cls-10" d="M936.8,752.66l-74.8,101.14c-5.27.81-10.59,1.59-15.92,2.31l-120.39-87.58c3.12-.07,6.19-.15,9.18-.24,63.44-2,164.01-10.94,201.94-15.63Z"/>
    <path class="cls-13" d="M865.93,884.61l52.52,66.82c-64.31,59.93-149.95,139.27-182.24,169.16l107.98-232.79c7.32-.98,14.56-2.03,21.74-3.2Z"/>
    <path class="cls-37" d="M856.49,863.68l-3.07,4.21-9.24,19.91c-38.68,5.17-79.12,7.93-120.76,7.93l-.06-31.44c42.32,0,83.43-2.84,122.7-8.18l10.42,7.57Z"/>
    <path class="cls-26" d="M725.68,768.53l120.39,87.58c-39.28,5.34-80.38,8.18-122.7,8.18l-.13-95.27.63-.46c.61-.02,1.2-.04,1.81-.04Z"/>
    <path class="cls-1" d="M844.19,887.81l-107.98,232.79c-6.56,6.08-10.92,10.12-12.45,11.55l-.33-236.41c41.64,0,82.08-2.75,120.76-7.93Z"/>
    <path class="cls-37" d="M1077.2,786.52c.02-.2.06-.39.07-.57.02-.17.02-.37.02-.57-.04-12.77-34.62-90.63-40.73-100.11-1.63-2.51-3.88-4.84-7.13-7.41-8.65-6.85-24.33-15.44-53.98-34.07.04-11.66.02-23.39-.02-34.42,15.41,8.68,45.63,26.58,71.31,47.03,36.21,28.86,55.99,97.87,57.69,117.66,1.7,19.8,1.09,25.38-18.14,50.27,0,0-60.26,75.08-170.88,173.1-84.22,81.28-173.99,158.15-178.77,162.94-9.74,9.74-21.56,3.47-38.26-11.12-16.7-14.61-283.24-254.64-322.2-304.74-38.98-50.08-40.2-52.23-31.29-84.13,8.89-31.9,26.66-85.77,55.42-106.19,16.09-11.4,48.53-31,73.99-46.05v35.95c-25.64,13.63-53.39,28.65-60.02,33.25-1.15.79-2.4,2.09-3.75,3.79-14.17,17.79-38.85,81.23-41.47,104.06,0,.07-.02.13-.02.2,0,1.16.57,3.01,1.76,5.47,4.06,8.48,15.37,24.26,35.36,43.86,2.4,2.35,4.91,4.77,7.57,7.22,11.51,10.68,56.86,53.26,109.44,102.66,69.83,65.64,152.39,143.3,185.35,174.32,9.29,8.76,14.65,13.78,14.65,13.78l.61-.55c1.53-1.42,5.89-5.47,12.45-11.55,32.29-29.89,117.94-109.24,182.24-169.16,16.74-15.57,32.03-29.85,44.56-41.6,31.29-29.35,56.57-54.35,75.3-74.15,24.22-25.6,37.52-42.58,38.89-49.16Z"/>
    <path class="cls-18" d="M723.42,895.74l.33,236.41-.61.55s-5.36-5.02-14.65-13.78l-112.71-232.03c40.73,5.78,83.48,8.85,127.54,8.85h.09Z"/>
    <path class="cls-7" d="M723.24,769.02l.13,95.27h-.04c-41.2,0-81.25-2.68-119.56-7.76l119.47-87.51Z"/>
    <path class="cls-28" d="M723.24,768.56v.46l-119.47,87.51c-6.96-.91-13.87-1.9-20.73-2.99l-62.18-99.8c37.3,9.02,132.14,15.98,202.38,14.82Z"/>
    <path class="cls-21" d="M595.79,886.89l112.71,232.03c-32.96-31.02-115.52-108.68-185.35-174.32l60.8-59.47c3.92.61,7.87,1.2,11.84,1.76Z"/>
    <path class="cls-37" d="M603.77,856.53c38.31,5.08,78.37,7.76,119.56,7.76h.04l.06,31.44h-.09c-44.06,0-86.81-3.07-127.54-8.85-3.97-.55-7.93-1.15-11.84-1.76-65.8-10.25-126.06-27.6-177.81-50.41-19.99-19.6-31.29-35.38-35.36-43.86,1.46-.83,2.9-1.64,4.34-2.46,6.1,3.18,12.36,6.28,18.77,9.27,54.15,25.46,118.43,44.76,189.15,55.86,6.85,1.09,13.76,2.09,20.73,2.99Z"/>
    <path class="cls-28" d="M583.95,885.13l-60.8,59.47c-52.58-49.4-97.93-91.98-109.44-102.66-2.66-2.46-5.17-4.88-7.57-7.22,51.74,22.82,112.01,40.16,177.81,50.41Z"/>
    <path class="cls-6" d="M520.86,753.75l62.18,99.8c-70.72-11.1-135.01-30.41-189.15-55.86,22.39-15.96,73.62-34.21,114.85-47.29,3.05.94,6.37,1.88,9.98,2.83.68.18,1.4.35,2.14.54Z"/>
    <path class="cls-37" d="M508.74,750.38c-41.23,13.08-92.46,31.33-114.85,47.29-6.41-2.99-12.67-6.1-18.77-9.27,46.48-26.29,82.87-42.06,107.57-51.25,5.19,5.02,13.37,9.26,26.05,13.23Z"/>
    <path class="cls-28" d="M478.94,732.59c1.02,1.61,2.27,3.1,3.75,4.56-24.7,9.18-61.09,24.96-107.57,51.25-2.05-1.05-4.08-2.12-6.08-3.21,2.62-22.83,27.3-86.27,41.47-104.06l68.43,51.47Z"/>
    <path class="cls-28" d="M478.94,732.59l-68.43-51.47c1.35-1.7,2.6-2.99,3.75-3.79,6.63-4.6,34.38-19.62,60.02-33.25v68.46c0,8.04,1.05,14.52,4.66,20.04Z"/>
  </g>
  <g>
    <path class="cls-33" d="M523.06,767.48c-37.83-7.21-50.44-4.8-50.44-41.43v-245.58c0-21.62,1.8-35.43,29.42-48.03,27.62-12.61,197.56-90.66,208.97-94.27,11.41-3.6,18.61-5.4,34.23,1.2,15.61,6.6,193.96,87.06,208.97,94.27,15.01,7.21,22.82,19.81,22.22,34.22-.6,14.41,0,254.58,0,268.39s-1.8,25.82-56.45,32.42c-54.64,6.6-199.36,25.82-396.92-1.2Z"/>
    <g>
      <path class="cls-9" d="M499.63,710.2v19.79c0,8.53,6.98,15.13,15.13,15.11-6.09-3.11-8.53-9.34-8.27-20.96.36-16,3.64-21.82,32.73-28.36,29.09-6.54,143.66-35.27,156.75-37.45,13.09-2.18,14.91,1.45,16,20,.63,10.76,1.25,20.05-3.66,28.02l8.11-1.64v-60.13c-44.46,10.92-160.61,39.47-205.45,50.97-6.69,1.72-11.36,7.74-11.36,14.65Z"/>
      <path class="cls-9" d="M499.63,631.03v20.31c0,9.9,9.34,17.13,18.92,14.64l3.69-.96c-7.57-1.87-14.53-7.86-14.53-18.86,0-13.56,2.98-22.15,29.09-30.09,26.12-7.93,140.18-40.33,151.75-44.3,11.57-3.97,19.84-.33,22.81,18.84,1.75,11.31-1.57,20.19-6.88,27.14l11.94-3.1v-59.17l-205.97,61.03c-6.42,1.9-10.83,7.8-10.83,14.5Z"/>
      <path class="cls-9" d="M499.63,553.89v20.35c0,10.29,10.05,17.58,19.83,14.38l8.81-2.89c-14.43.65-21.71-2.12-21.42-16.12.36-17.09,6.55-24.72,22.18-29.81,15.64-5.09,157.84-59.92,168.39-62.46,10.55-2.55,14.55,3.56,13.82,22.11-.4,10.25-.26,19.38-1.39,26.85l6.57-2.15v-62.52l-207.02,78.11c-5.89,2.22-9.79,7.86-9.79,14.15Z"/>
      <path class="cls-9" d="M508.62,456.55c-5.47,2.43-8.99,7.85-8.99,13.82v22.99c0,10.77,10.93,18.09,20.89,13.99l.87-.36c-10.8,1.9-13.98-2.57-13.98-16.43,0-23.6,8-28.8,32.4-38.8,24.4-10,130.42-59.6,146.82-65.2,16.4-5.6,24.8,5.6,25.2,20,.23,8.35,2.06,15.35-1.49,22.56l6.09-2.51v-62.35l-207.82,92.28Z"/>
      <path class="cls-16" d="M557.01,494.56l134.42-48.8c10.93-6.05,16.34-11.4,18.92-16.64l-188.96,77.86c7.59-1.34,18.94-5.82,35.63-12.43Z"/>
      <path class="cls-15" d="M711.83,406.56c-.4-14.4-8.8-25.6-25.2-20-16.4,5.6-122.42,55.2-146.82,65.2-24.4,10-32.4,15.2-32.4,38.8,0,13.86,3.18,18.33,13.98,16.43l188.96-77.86c3.55-7.22,1.72-14.22,1.49-22.56Z"/>
      <path class="cls-16" d="M538.86,584.88l164.75-43.99c3.58-3.58,5.33-8.55,6.25-14.6l-181.59,59.44c3.19-.14,6.71-.45,10.59-.84Z"/>
      <path class="cls-15" d="M697.43,477.33c-10.55,2.55-152.75,57.37-168.39,62.46-15.64,5.09-21.82,12.73-22.18,29.81-.3,14,6.98,16.77,21.42,16.12l181.59-59.44c1.13-7.47.99-16.6,1.39-26.85.73-18.54-3.27-24.65-13.82-22.11Z"/>
      <path class="cls-16" d="M527.55,665.68l163.98-36.04c4.61-3.12,9.26-7.03,12.96-11.87l-182.25,47.26c1.76.44,3.56.65,5.31.65Z"/>
      <path class="cls-15" d="M711.37,590.63c-2.98-19.18-11.24-22.81-22.81-18.84-11.57,3.97-125.63,36.37-151.75,44.3-26.12,7.93-29.09,16.53-29.09,30.09,0,10.99,6.96,16.99,14.53,18.86l182.25-47.26c5.31-6.95,8.63-15.83,6.88-27.14Z"/>
      <path class="cls-16" d="M514.76,745.1c2.29,1.17,5.08,1.91,8.46,2.31l163.66-25.81c11.45-4.42,17.89-9.49,21.44-15.25l-190.57,38.48c-1.01.2-2,.28-2.99.28Z"/>
      <path class="cls-15" d="M711.98,678.33c-1.09-18.54-2.91-22.18-16-20-13.09,2.18-127.65,30.91-156.75,37.45-29.09,6.54-32.37,12.36-32.73,28.36-.26,11.62,2.18,17.86,8.27,20.96.98,0,1.98-.08,2.99-.28l190.57-38.48c4.91-7.96,4.29-17.25,3.66-28.02Z"/>
      <path class="cls-3" d="M536.58,722.17h0c-.69-3.02,1.2-6.02,4.22-6.71l100.35-22.82c3.02-.69,6.02,1.2,6.71,4.22h0c.69,3.02-1.2,6.02-4.22,6.71l-100.35,22.82c-3.02.69-6.02-1.2-6.71-4.22Z"/>
      <path class="cls-3" d="M540.08,562.46h0c-.98-2.94.62-6.11,3.55-7.09l97.15-32.25c2.94-.98,6.11.62,7.09,3.55h0c.98,2.94-.62,6.11-3.55,7.09l-97.15,32.25c-2.94.98-6.11-.62-7.09-3.55Z"/>
      <path class="cls-3" d="M542.69,478.23h0c-1.23-2.84.07-6.14,2.91-7.38l92.27-40.05c2.84-1.23,6.14.07,7.38,2.91h0c1.23,2.84-.07,6.14-2.91,7.38l-92.27,40.05c-2.84,1.23-6.14-.07-7.38-2.91Z"/>
      <path class="cls-3" d="M670.33,413.9c4.98,0,9.01,4.04,9.01,9.01s-4.04,9.01-9.01,9.01-9.01-4.04-9.01-9.01,4.04-9.01,9.01-9.01Z"/>
      <path class="cls-3" d="M670.33,507.35c4.98,0,9.01,4.04,9.01,9.01s-4.04,9.01-9.01,9.01-9.01-4.04-9.01-9.01,4.04-9.01,9.01-9.01Z"/>
      <path class="cls-3" d="M672.2,593.33c4.98,0,9.01,4.04,9.01,9.01s-4.04,9.01-9.01,9.01-9.01-4.04-9.01-9.01,4.04-9.01,9.01-9.01Z"/>
      <path class="cls-3" d="M674.07,681.17c4.98,0,9.01,4.04,9.01,9.01s-4.04,9.01-9.01,9.01-9.01-4.04-9.01-9.01,4.04-9.01,9.01-9.01Z"/>
      <path class="cls-3" d="M537.86,641.07h0c-.83-2.98.91-6.08,3.9-6.91l95.88-26.73c2.98-.83,6.08.91,6.91,3.9h0c.83,2.98-.91,6.08-3.9,6.91l-95.88,26.73c-2.98.83-6.08-.91-6.91-3.9Z"/>
      <path class="cls-12" d="M951.93,710.2v19.79c0,8.53-6.98,15.13-15.13,15.11,6.09-3.11,8.53-9.34,8.27-20.96-.36-16-3.64-21.82-32.73-28.36-29.09-6.54-143.66-35.27-156.75-37.45-13.09-2.18-14.91,1.45-16,20-.63,10.76-1.25,20.05,3.66,28.02l-8.11-1.64v-60.13c44.46,10.92,160.61,39.47,205.45,50.97,6.69,1.72,11.36,7.74,11.36,14.65Z"/>
      <path class="cls-20" d="M951.93,631.03v20.31c0,9.9-9.34,17.13-18.92,14.64l-3.69-.96c7.57-1.87,14.53-7.86,14.53-18.86,0-13.56-2.98-22.15-29.09-30.09-26.12-7.93-140.18-40.33-151.75-44.3-11.57-3.97-19.84-.33-22.81,18.84-1.75,11.31,1.57,20.19,6.88,27.14l-11.94-3.1v-59.17s205.97,61.03,205.97,61.03c6.42,1.9,10.83,7.8,10.83,14.5Z"/>
      <path class="cls-2" d="M951.93,553.89v20.35c0,10.29-10.05,17.58-19.83,14.38l-8.81-2.89c14.43.65,21.71-2.12,21.42-16.12-.36-17.09-6.55-24.72-22.18-29.81-15.64-5.09-157.84-59.92-168.39-62.46-10.55-2.55-14.55,3.56-13.82,22.11.4,10.25.26,19.38,1.39,26.85l-6.57-2.15v-62.52s207.02,78.11,207.02,78.11c5.89,2.22,9.79,7.86,9.79,14.15Z"/>
      <path class="cls-31" d="M942.94,456.55c5.47,2.43,8.99,7.85,8.99,13.82v22.99c0,10.77-10.93,18.09-20.89,13.99l-.87-.36c10.8,1.9,13.98-2.57,13.98-16.43,0-23.6-8-28.8-32.4-38.8-24.4-10-130.42-59.6-146.82-65.2-16.4-5.6-24.8,5.6-25.2,20-.23,8.35-2.06,15.35,1.49,22.56l-6.09-2.51v-15.46s0-46.89,0-46.89l207.82,92.28Z"/>
      <path class="cls-16" d="M894.54,494.56l-134.42-48.8c-10.93-6.05-16.34-11.4-18.92-16.64l188.96,77.86c-7.59-1.34-18.94-5.82-35.63-12.43Z"/>
      <path class="cls-19" d="M739.72,406.56c.4-14.4,8.8-25.6,25.2-20,16.4,5.6,122.42,55.2,146.82,65.2,24.4,10,32.4,15.2,32.4,38.8,0,13.86-3.18,18.33-13.98,16.43l-188.96-77.86c-3.55-7.22-1.72-14.22-1.49-22.56Z"/>
      <path class="cls-16" d="M912.69,584.88l-164.75-43.99c-3.58-3.58-5.33-8.55-6.25-14.6l181.59,59.44c-3.19-.14-6.71-.45-10.59-.84Z"/>
      <path class="cls-19" d="M754.12,477.33c10.55,2.55,152.75,57.37,168.39,62.46,15.64,5.09,21.82,12.73,22.18,29.81.3,14-6.98,16.77-21.42,16.12l-181.59-59.44c-1.13-7.47-.99-16.6-1.39-26.85-.73-18.54,3.27-24.65,13.82-22.11Z"/>
      <path class="cls-16" d="M924.01,665.68l-163.98-36.04c-4.61-3.12-9.26-7.03-12.96-11.87l182.25,47.26c-1.76.44-3.56.65-5.31.65Z"/>
      <path class="cls-19" d="M740.19,590.63c2.98-19.18,11.24-22.81,22.81-18.84,11.57,3.97,125.63,36.37,151.75,44.3,26.12,7.93,29.09,16.53,29.09,30.09,0,10.99-6.96,16.99-14.53,18.86l-182.25-47.26c-5.31-6.95-8.63-15.83-6.88-27.14Z"/>
      <path class="cls-16" d="M936.79,745.1c-2.29,1.17-5.08,1.91-8.46,2.31l-163.66-25.81c-11.45-4.42-17.89-9.49-21.44-15.25l190.57,38.48c1.01.2,2,.28,2.99.28Z"/>
      <path class="cls-19" d="M739.58,678.33c1.09-18.54,2.91-22.18,16-20,13.09,2.18,127.65,30.91,156.75,37.45,29.09,6.54,32.37,12.36,32.73,28.36.26,11.62-2.18,17.86-8.27,20.96-.98,0-1.98-.08-2.99-.28l-190.57-38.48c-4.91-7.96-4.29-17.25-3.66-28.02Z"/>
      <path class="cls-3" d="M809.76,422.61c4.98,0,9.01,4.04,9.01,9.01s-4.04,9.01-9.01,9.01-9.01-4.04-9.01-9.01,4.04-9.01,9.01-9.01Z"/>
      <path class="cls-3" d="M846.66,437.08c4.98,0,9.01,4.04,9.01,9.01s-4.04,9.01-9.01,9.01-9.01-4.04-9.01-9.01,4.04-9.01,9.01-9.01Z"/>
      <path class="cls-3" d="M884.2,452.51c4.98,0,9.01,4.04,9.01,9.01s-4.04,9.01-9.01,9.01-9.01-4.04-9.01-9.01,4.04-9.01,9.01-9.01Z"/>
      <path class="cls-3" d="M771.26,405.04c4.98,0,9.01,4.04,9.01,9.01s-4.04,9.01-9.01,9.01-9.01-4.04-9.01-9.01,4.04-9.01,9.01-9.01Z"/>
      <path class="cls-3" d="M770.6,500.22c4.98,0,9.01,4.04,9.01,9.01s-4.04,9.01-9.01,9.01-9.01-4.04-9.01-9.01,4.04-9.01,9.01-9.01Z"/>
      <path class="cls-3" d="M764.99,585.35c4.98,0,9.01,4.04,9.01,9.01s-4.04,9.01-9.01,9.01-9.01-4.04-9.01-9.01,4.04-9.01,9.01-9.01Z"/>
      <path class="cls-3" d="M761.7,670.84c4.98,0,9.01,4.04,9.01,9.01s-4.04,9.01-9.01,9.01-9.01-4.04-9.01-9.01,4.04-9.01,9.01-9.01Z"/>
      <path class="cls-3" d="M800.12,679.85c4.98,0,9.01,4.04,9.01,9.01s-4.04,9.01-9.01,9.01-9.01-4.04-9.01-9.01,4.04-9.01,9.01-9.01Z"/>
      <path class="cls-3" d="M838.54,690.18c4.98,0,9.01,4.04,9.01,9.01s-4.04,9.01-9.01,9.01-9.01-4.04-9.01-9.01,4.04-9.01,9.01-9.01Z"/>
      <path class="cls-3" d="M876.14,700.5c4.98,0,9.01,4.04,9.01,9.01s-4.04,9.01-9.01,9.01-9.01-4.04-9.01-9.01,4.04-9.01,9.01-9.01Z"/>
      <path class="cls-3" d="M914.27,708.85c4.98,0,9.01,4.04,9.01,9.01s-4.04,9.01-9.01,9.01-9.01-4.04-9.01-9.01,4.04-9.01,9.01-9.01Z"/>
      <path class="cls-3" d="M800.62,597.23c4.98,0,9.01,4.04,9.01,9.01s-4.04,9.01-9.01,9.01-9.01-4.04-9.01-9.01,4.04-9.01,9.01-9.01Z"/>
      <path class="cls-3" d="M838.19,607.23c4.98,0,9.01,4.04,9.01,9.01s-4.04,9.01-9.01,9.01-9.01-4.04-9.01-9.01,4.04-9.01,9.01-9.01Z"/>
      <path class="cls-3" d="M876.14,619.1c4.98,0,9.01,4.04,9.01,9.01s-4.04,9.01-9.01,9.01-9.01-4.04-9.01-9.01,4.04-9.01,9.01-9.01Z"/>
      <path class="cls-3" d="M913.3,629.33c4.98,0,9.01,4.04,9.01,9.01s-4.04,9.01-9.01,9.01-9.01-4.04-9.01-9.01,4.04-9.01,9.01-9.01Z"/>
      <path class="cls-3" d="M803.86,511.7c4.98,0,9.01,4.04,9.01,9.01s-4.04,9.01-9.01,9.01-9.01-4.04-9.01-9.01,4.04-9.01,9.01-9.01Z"/>
      <path class="cls-3" d="M842.46,525.5c4.98,0,9.01,4.04,9.01,9.01s-4.04,9.01-9.01,9.01-9.01-4.04-9.01-9.01,4.04-9.01,9.01-9.01Z"/>
      <path class="cls-3" d="M877.64,537.98c4.98,0,9.01,4.04,9.01,9.01s-4.04,9.01-9.01,9.01-9.01-4.04-9.01-9.01,4.04-9.01,9.01-9.01Z"/>
      <path class="cls-3" d="M913.3,549.2c4.98,0,9.01,4.04,9.01,9.01s-4.04,9.01-9.01,9.01-9.01-4.04-9.01-9.01,4.04-9.01,9.01-9.01Z"/>
      <path class="cls-3" d="M918.91,466.56c4.98,0,9.01,4.04,9.01,9.01s-4.04,9.01-9.01,9.01-9.01-4.04-9.01-9.01,4.04-9.01,9.01-9.01Z"/>
    </g>
  </g>
</svg>